<svg xmlns="http://www.w3.org/2000/svg" xmlns:xlink="http://www.w3.org/1999/xlink" contentStyleType="text/css" data-diagram-type="DESCRIPTION" height="1000px" preserveAspectRatio="none" style="width:1258px;height:1000px;background:#FFFFFF;" version="1.1" viewBox="0 0 1258 1000" width="1258px" zoomAndPan="magnify"><defs/><g><!--cluster Sistema Cariri Cultural--><g class="cluster" data-entity="Sistema Cariri Cultural" data-source-line="39" data-uid="ent0009" id="cluster_Sistema Cariri Cultural"><rect fill="none" height="653" rx="2.5" ry="2.5" style="stroke:#181818;stroke-width:1;" width="324" x="667" y="77.22"/><text fill="#000000" font-family="sans-serif" font-size="14" font-weight="bold" lengthAdjust="spacing" textLength="179.1631" x="739.4185" y="92.2151">Sistema Cariri Cultural</text></g><!--entity C1--><g class="entity" data-entity="C1" data-source-line="40" data-uid="ent0010" id="entity_C1"><path d="M747,385.22 L780.0156,385.22 A3.75,3.75 0 0 1 782.5156,387.72 L789.5156,407.5169 L911.1182,407.5169 A2.5,2.5 0 0 1 913.6182,410.0169 L913.6182,438.3138 A2.5,2.5 0 0 1 911.1182,440.8138 L747,440.8138 A2.5,2.5 0 0 1 744.5,438.3138 L744.5,387.72 A2.5,2.5 0 0 1 747,385.22" fill="#F1F1F1" style="stroke:#181818;stroke-width:0.5;"/><line style="stroke:#181818;stroke-width:0.5;" x1="744.5" x2="789.5156" y1="407.5169" y2="407.5169"/><text fill="#000000" font-family="sans-serif" font-size="14" font-weight="bold" lengthAdjust="spacing" textLength="20.0156" x="754.5" y="401.2151">C1</text><text fill="#000000" font-family="sans-serif" font-size="14" lengthAdjust="spacing" textLength="139.1182" x="754.5" y="427.512">Descoberta e busca</text></g><!--entity C2--><g class="entity" data-entity="C2" data-source-line="41" data-uid="ent0011" id="entity_C2"><path d="M769.5,567.22 L802.5156,567.22 A3.75,3.75 0 0 1 805.0156,569.72 L812.0156,589.5169 L888.9932,589.5169 A2.5,2.5 0 0 1 891.4932,592.0169 L891.4932,620.3138 A2.5,2.5 0 0 1 888.9932,622.8138 L769.5,622.8138 A2.5,2.5 0 0 1 767,620.3138 L767,569.72 A2.5,2.5 0 0 1 769.5,567.22" fill="#F1F1F1" style="stroke:#181818;stroke-width:0.5;"/><line style="stroke:#181818;stroke-width:0.5;" x1="767" x2="812.0156" y1="589.5169" y2="589.5169"/><text fill="#000000" font-family="sans-serif" font-size="14" font-weight="bold" lengthAdjust="spacing" textLength="20.0156" x="777" y="583.2151">C2</text><text fill="#000000" font-family="sans-serif" font-size="14" lengthAdjust="spacing" textLength="94.4932" x="777" y="609.512">Perfil do local</text></g><!--entity C3--><g class="entity" data-entity="C3" data-source-line="42" data-uid="ent0012" id="entity_C3"><path d="M696.5,658.22 L729.5156,658.22 A3.75,3.75 0 0 1 732.0156,660.72 L739.0156,680.5169 L961.8037,680.5169 A2.5,2.5 0 0 1 964.3037,683.0169 L964.3037,711.3138 A2.5,2.5 0 0 1 961.8037,713.8138 L696.5,713.8138 A2.5,2.5 0 0 1 694,711.3138 L694,660.72 A2.5,2.5 0 0 1 696.5,658.22" fill="#F1F1F1" style="stroke:#181818;stroke-width:0.5;"/><line style="stroke:#181818;stroke-width:0.5;" x1="694" x2="739.0156" y1="680.5169" y2="680.5169"/><text fill="#000000" font-family="sans-serif" font-size="14" font-weight="bold" lengthAdjust="spacing" textLength="20.0156" x="704" y="674.2151">C3</text><text fill="#000000" font-family="sans-serif" font-size="14" lengthAdjust="spacing" textLength="240.3037" x="704" y="700.512">Agenda, comunidade e avalia&#231;&#245;es</text></g><!--entity C4--><g class="entity" data-entity="C4" data-source-line="43" data-uid="ent0013" id="entity_C4"><path d="M755.5,112.22 L788.5156,112.22 A3.75,3.75 0 0 1 791.0156,114.72 L798.0156,134.5169 L902.1387,134.5169 A2.5,2.5 0 0 1 904.6387,137.0169 L904.6387,165.3138 A2.5,2.5 0 0 1 902.1387,167.8138 L755.5,167.8138 A2.5,2.5 0 0 1 753,165.3138 L753,114.72 A2.5,2.5 0 0 1 755.5,112.22" fill="#F1F1F1" style="stroke:#181818;stroke-width:0.5;"/><line style="stroke:#181818;stroke-width:0.5;" x1="753" x2="798.0156" y1="134.5169" y2="134.5169"/><text fill="#000000" font-family="sans-serif" font-size="14" font-weight="bold" lengthAdjust="spacing" textLength="20.0156" x="763" y="128.2151">C4</text><text fill="#000000" font-family="sans-serif" font-size="14" lengthAdjust="spacing" textLength="121.6387" x="763" y="154.512">Assistente virtual</text></g><!--entity C5--><g class="entity" data-entity="C5" data-source-line="44" data-uid="ent0014" id="entity_C5"><path d="M735.5,294.22 L768.5156,294.22 A3.75,3.75 0 0 1 771.0156,296.72 L778.0156,316.5169 L922.04,316.5169 A2.5,2.5 0 0 1 924.54,319.0169 L924.54,347.3138 A2.5,2.5 0 0 1 922.04,349.8138 L735.5,349.8138 A2.5,2.5 0 0 1 733,347.3138 L733,296.72 A2.5,2.5 0 0 1 735.5,294.22" fill="#F1F1F1" style="stroke:#181818;stroke-width:0.5;"/><line style="stroke:#181818;stroke-width:0.5;" x1="733" x2="778.0156" y1="316.5169" y2="316.5169"/><text fill="#000000" font-family="sans-serif" font-size="14" font-weight="bold" lengthAdjust="spacing" textLength="20.0156" x="743" y="310.2151">C5</text><text fill="#000000" font-family="sans-serif" font-size="14" lengthAdjust="spacing" textLength="161.54" x="743" y="336.512">&#193;rea pessoal e roteiros</text></g><!--entity C6--><g class="entity" data-entity="C6" data-source-line="45" data-uid="ent0015" id="entity_C6"><path d="M685.5,203.22 L718.5156,203.22 A3.75,3.75 0 0 1 721.0156,205.72 L728.0156,225.5169 L972.6992,225.5169 A2.5,2.5 0 0 1 975.1992,228.0169 L975.1992,256.3138 A2.5,2.5 0 0 1 972.6992,258.8138 L685.5,258.8138 A2.5,2.5 0 0 1 683,256.3138 L683,205.72 A2.5,2.5 0 0 1 685.5,203.22" fill="#F1F1F1" style="stroke:#181818;stroke-width:0.5;"/><line style="stroke:#181818;stroke-width:0.5;" x1="683" x2="728.0156" y1="225.5169" y2="225.5169"/><text fill="#000000" font-family="sans-serif" font-size="14" font-weight="bold" lengthAdjust="spacing" textLength="20.0156" x="693" y="219.2151">C6</text><text fill="#000000" font-family="sans-serif" font-size="14" lengthAdjust="spacing" textLength="262.1992" x="693" y="245.512">Social, enquetes e compartilhamento</text></g><!--entity C7--><g class="entity" data-entity="C7" data-source-line="46" data-uid="ent0016" id="entity_C7"><path d="M701,476.22 L734.0156,476.22 A3.75,3.75 0 0 1 736.5156,478.72 L743.5156,498.5169 L956.5557,498.5169 A2.5,2.5 0 0 1 959.0557,501.0169 L959.0557,529.3138 A2.5,2.5 0 0 1 956.5557,531.8138 L701,531.8138 A2.5,2.5 0 0 1 698.5,529.3138 L698.5,478.72 A2.5,2.5 0 0 1 701,476.22" fill="#F1F1F1" style="stroke:#181818;stroke-width:0.5;"/><line style="stroke:#181818;stroke-width:0.5;" x1="698.5" x2="743.5156" y1="498.5169" y2="498.5169"/><text fill="#000000" font-family="sans-serif" font-size="14" font-weight="bold" lengthAdjust="spacing" textLength="20.0156" x="708.5" y="492.2151">C7</text><text fill="#000000" font-family="sans-serif" font-size="14" lengthAdjust="spacing" textLength="230.5557" x="708.5" y="518.512">Gest&#227;o administrativa (hip&#243;tese)</text></g><!--entity V--><g class="entity" data-entity="V" data-source-line="30" data-uid="ent0002" id="entity_V"><ellipse cx="195.3472" cy="383.72" fill="#F1F1F1" rx="8" ry="8" style="stroke:#181818;stroke-width:0.5;"/><path d="M195.3472,391.72 L195.3472,418.72 M182.3472,399.72 L208.3472,399.72 M195.3472,418.72 L182.3472,433.72 M195.3472,418.72 L208.3472,433.72" fill="none" style="stroke:#181818;stroke-width:0.5;"/><text fill="#000000" font-family="sans-serif" font-size="14" lengthAdjust="spacing" textLength="61.6943" x="164.5" y="448.2151">Visitante</text></g><!--entity UA--><g class="entity" data-entity="UA" data-source-line="31" data-uid="ent0003" id="entity_UA"><ellipse cx="534.0947" cy="292.72" fill="#F1F1F1" rx="8" ry="8" style="stroke:#181818;stroke-width:0.5;"/><path d="M534.0947,300.72 L534.0947,327.72 M521.0947,308.72 L547.0947,308.72 M534.0947,327.72 L521.0947,342.72 M534.0947,327.72 L547.0947,342.72" fill="none" style="stroke:#181818;stroke-width:0.5;"/><text fill="#000000" font-family="sans-serif" font-size="14" lengthAdjust="spacing" textLength="141.1895" x="463.5" y="357.2151">Usu&#225;rio autenticado</text></g><!--entity VA--><g class="entity" data-entity="VA" data-source-line="32" data-uid="ent0004" id="entity_VA"><ellipse cx="533.8101" cy="110.72" fill="#F1F1F1" rx="8" ry="8" style="stroke:#181818;stroke-width:0.5;"/><path d="M533.8101,118.72 L533.8101,145.72 M520.8101,126.72 L546.8101,126.72 M533.8101,145.72 L520.8101,160.72 M533.8101,145.72 L546.8101,160.72" fill="none" style="stroke:#181818;stroke-width:0.5;"/><text fill="#000000" font-family="sans-serif" font-size="14" lengthAdjust="spacing" textLength="120.6201" x="473.5" y="175.2151">Votante an&#244;nimo</text></g><!--entity G--><g class="entity" data-entity="G" data-source-line="33" data-uid="ent0005" id="entity_G"><ellipse cx="533.7832" cy="474.72" fill="#F1F1F1" rx="8" ry="8" style="stroke:#181818;stroke-width:0.5;"/><path d="M533.7832,482.72 L533.7832,509.72 M520.7832,490.72 L546.7832,490.72 M533.7832,509.72 L520.7832,524.72 M533.7832,509.72 L546.7832,524.72" fill="none" style="stroke:#181818;stroke-width:0.5;"/><text fill="#000000" font-family="sans-serif" font-size="14" lengthAdjust="spacing" textLength="46.5664" x="510.5" y="539.2151">Gestor</text></g><!--entity ADM--><g class="entity" data-entity="ADM" data-source-line="34" data-uid="ent0006" id="entity_ADM"><ellipse cx="534.0313" cy="799.22" fill="#F1F1F1" rx="8" ry="8" style="stroke:#181818;stroke-width:0.5;"/><path d="M534.0313,807.22 L534.0313,834.22 M521.0313,815.22 L547.0313,815.22 M534.0313,834.22 L521.0313,849.22 M534.0313,834.22 L547.0313,849.22" fill="none" style="stroke:#181818;stroke-width:0.5;"/><text fill="#000000" font-family="sans-serif" font-size="14" lengthAdjust="spacing" textLength="178.0625" x="445" y="863.7151">Administrador autorizado</text><text fill="#000000" font-family="sans-serif" font-size="14" lengthAdjust="spacing" textLength="93.2832" x="445" y="880.012">em curadoria</text></g><!--entity RESP--><g class="entity" data-entity="RESP" data-source-line="35" data-uid="ent0007" id="entity_RESP"><ellipse cx="534.0488" cy="927.72" fill="#F1F1F1" rx="8" ry="8" style="stroke:#181818;stroke-width:0.5;"/><path d="M534.0488,935.72 L534.0488,962.72 M521.0488,943.72 L547.0488,943.72 M534.0488,962.72 L521.0488,977.72 M534.0488,962.72 L547.0488,977.72" fill="none" style="stroke:#181818;stroke-width:0.5;"/><text fill="#000000" font-family="sans-serif" font-size="14" lengthAdjust="spacing" textLength="160.0977" x="454" y="992.2151">Respons&#225;vel pelo local</text></g><!--entity APL--><g class="entity" data-entity="APL" data-source-line="49" data-uid="ent0017" id="entity_APL"><ellipse cx="1143.6685" cy="354.72" fill="#F1F1F1" rx="8" ry="8" style="stroke:#181818;stroke-width:0.5;"/><path d="M1143.6685,362.72 L1143.6685,389.72 M1130.6685,370.72 L1156.6685,370.72 M1143.6685,389.72 L1130.6685,404.72 M1143.6685,389.72 L1156.6685,404.72" fill="none" style="stroke:#181818;stroke-width:0.5;"/><text fill="#000000" font-family="sans-serif" font-size="14" lengthAdjust="spacing" textLength="202.3369" x="1042.5" y="419.2151">Administrador da plataforma</text></g><!--entity AEC--><g class="entity" data-entity="AEC" data-source-line="50" data-uid="ent0018" id="entity_AEC"><ellipse cx="1143.7021" cy="466.22" fill="#F1F1F1" rx="8" ry="8" style="stroke:#181818;stroke-width:0.5;"/><path d="M1143.7021,474.22 L1143.7021,501.22 M1130.7021,482.22 L1156.7021,482.22 M1143.7021,501.22 L1130.7021,516.22 M1143.7021,501.22 L1156.7021,516.22" fill="none" style="stroke:#181818;stroke-width:0.5;"/><text fill="#000000" font-family="sans-serif" font-size="14" lengthAdjust="spacing" textLength="121.0303" x="1068.5" y="530.7151">Administrador de</text><text fill="#000000" font-family="sans-serif" font-size="14" lengthAdjust="spacing" textLength="150.4043" x="1068.5" y="547.012">equipamento cultural</text></g><!--entity AEG--><g class="entity" data-entity="AEG" data-source-line="51" data-uid="ent0019" id="entity_AEG"><ellipse cx="1143.4966" cy="594.22" fill="#F1F1F1" rx="8" ry="8" style="stroke:#181818;stroke-width:0.5;"/><path d="M1143.4966,602.22 L1143.4966,629.22 M1130.4966,610.22 L1156.4966,610.22 M1143.4966,629.22 L1130.4966,644.22 M1143.4966,629.22 L1156.4966,644.22" fill="none" style="stroke:#181818;stroke-width:0.5;"/><text fill="#000000" font-family="sans-serif" font-size="14" lengthAdjust="spacing" textLength="121.0303" x="1035" y="658.7151">Administrador de</text><text fill="#000000" font-family="sans-serif" font-size="14" lengthAdjust="spacing" textLength="216.9932" x="1035" y="675.012">estabelecimento gastron&#244;mico</text></g><g class="entity" data-entity="N1" data-source-line="71" data-uid="ent0036" id="entity_N1"><path d="M6,284.72 L6,340.1184 L385.4268,340.1184 L385.4268,294.72 L375.4268,284.72 L6,284.72" fill="#FEFFDD" style="stroke:#181818;stroke-width:0.5;"/><path d="M375.4268,284.72 L375.4268,294.72 L385.4268,294.72 L375.4268,284.72" fill="#FEFFDD" style="stroke:#181818;stroke-width:1;"/><text fill="#000000" font-family="sans-serif" font-size="13" lengthAdjust="spacing" textLength="296.8101" x="12" y="301.7869">Vis&#227;o de contexto: os elementos internos s&#227;o</text><text fill="#000000" font-family="sans-serif" font-size="13" font-weight="bold" lengthAdjust="spacing" textLength="57.4844" x="312.9424" y="301.7869">pacotes</text><text fill="#000000" font-family="sans-serif" font-size="13" lengthAdjust="spacing" textLength="303.2529" x="12" y="316.9197">de casos de uso, n&#227;o casos de uso individuais.</text><text fill="#000000" font-family="sans-serif" font-size="13" lengthAdjust="spacing" textLength="286.749" x="12" y="332.0525">O detalhamento est&#225; nos diagramas 2 a 11.</text></g><!--reverse link V to UA--><g class="link" data-entity-1="V" data-entity-2="UA" data-source-line="37" data-uid="lnk8" id="link_V_UA"><path d="M244.0365,400.3636 C296.9465,386.0636 390.41,360.78 463.25,341.08" fill="none" id="V-backto-UA" style="stroke:#181818;stroke-width:1;"/><polygon fill="none" points="226.66,405.06,245.602,406.1558,242.4711,394.5715,226.66,405.06" style="stroke:#181818;stroke-width:1;"/></g><!--link V to C1--><g class="link" data-entity-1="V" data-entity-2="C1" data-source-line="53" data-uid="lnk20" id="link_V_C1"><path d="M226.53,413.22 C319.06,413.22 602.12,413.22 744.44,413.22" fill="none" id="V-C1" style="stroke:#181818;stroke-width:1;"/></g><!--link V to C2--><g class="link" data-entity-1="V" data-entity-2="C2" data-source-line="54" data-uid="lnk21" id="link_V_C2"><path d="M226.78,441.96 C270.78,481.6 356.79,551.44 445,580.22 C553.97,615.78 689.69,610.28 766.83,602.87" fill="none" id="V-C2" style="stroke:#181818;stroke-width:1;"/></g><!--link V to C3--><g class="link" data-entity-1="V" data-entity-2="C3" data-source-line="55" data-uid="lnk22" id="link_V_C3"><path d="M226.58,446.69 C270.01,492.73 354.99,574.63 445,616.22 C522.93,652.23 617.8,669.74 693.62,678.24" fill="none" id="V-C3" style="stroke:#181818;stroke-width:1;"/></g><!--link V to C4--><g class="link" data-entity-1="V" data-entity-2="C4" data-source-line="56" data-uid="lnk23" id="link_V_C4"><path d="M226.81,413.18 C268.65,411.41 343.61,401.72 385,357.22 C469.6,266.25 348.19,162.07 445,84.22 C542.28,6 700.03,70.77 779.28,112.21" fill="none" id="V-C4" style="stroke:#181818;stroke-width:1;"/></g><!--link V to C6--><g class="link" data-entity-1="V" data-entity-2="C6" data-source-line="57" data-uid="lnk24" id="link_V_C6"><path d="M226.76,410.64 C266.55,405.92 337.02,392.82 385,357.22 C423.91,328.35 403.44,291.11 445,266.22 C515.61,223.94 607,214.26 682.8,215.59" fill="none" id="V-C6" style="stroke:#181818;stroke-width:1;"/></g><!--link V to C7--><g class="link" data-entity-1="V" data-entity-2="C7" data-source-line="58" data-uid="lnk25" id="link_V_C7"><path d="M226.59,438.22 C271.03,473.35 358.33,535.64 445,559.22 C521.34,579.99 544.61,569.9 623,559.22 C639.45,556.98 642.98,553.58 659,549.22 C679.36,543.68 701.12,537.83 722.03,532.25" fill="none" id="V-C7" style="stroke:#181818;stroke-width:1;"/></g><!--link UA to C3--><g class="link" data-entity-1="UA" data-entity-2="C3" data-source-line="59" data-uid="lnk26" id="link_UA_C3"><path d="M567.99,360.23 C586.92,384 609.52,416.11 623,448.22 C656.61,528.27 600.13,576.41 659,640.22 C668.79,650.84 680.77,659.1 693.79,665.51" fill="none" id="UA-C3" style="stroke:#181818;stroke-width:1;"/></g><!--link UA to C5--><g class="link" data-entity-1="UA" data-entity-2="C5" data-source-line="60" data-uid="lnk27" id="link_UA_C5"><path d="M604.81,322.22 C643.15,322.22 691.24,322.22 732.96,322.22" fill="none" id="UA-C5" style="stroke:#181818;stroke-width:1;"/></g><!--link UA to C6--><g class="link" data-entity-1="UA" data-entity-2="C6" data-source-line="61" data-uid="lnk28" id="link_UA_C6"><path d="M604.77,295.02 C622.35,288.53 641.28,281.85 659,276.22 C677.52,270.33 697.34,264.58 716.66,259.26" fill="none" id="UA-C6" style="stroke:#181818;stroke-width:1;"/></g><!--link VA to C6--><g class="link" data-entity-1="VA" data-entity-2="C6" data-source-line="62" data-uid="lnk29" id="link_VA_C6"><path d="M594.58,162.97 C614.89,170.42 637.82,178.51 659,185.22 C678.57,191.42 699.56,206.8898 719.88,212.5498" fill="none" id="VA-C6" style="stroke:#181818;stroke-width:1;"/></g><!--link ADM to C3--><g class="link" data-entity-1="ADM" data-entity-2="C3" data-source-line="63" data-uid="lnk30" id="link_ADM_C3"><path d="M623.31,791.71 C672.17,766.53 731.35,736.03 773.48,714.32" fill="none" id="ADM-C3" style="stroke:#181818;stroke-width:1;"/></g><!--link RESP to C3--><g class="link" data-entity-1="RESP" data-entity-2="C3" data-source-line="64" data-uid="lnk31" id="link_RESP_C3"><path d="M599.26,918.92 C607.47,913.29 615.59,907.31 623,901.22 C695.71,841.45 768.94,757.64 804.99,714.43" fill="none" id="RESP-C3" style="stroke:#181818;stroke-width:1;"/></g><!--link G to C7--><g class="link" data-entity-1="G" data-entity-2="C7" data-source-line="65" data-uid="lnk32" id="link_G_C7"><path d="M557.5,504.22 C587.99,504.22 644.79,504.22 698.5,504.22" fill="none" id="G-C7" style="stroke:#181818;stroke-width:1;"/></g><!--link C7 to APL--><g class="link" data-entity-1="C7" data-entity-2="APL" data-source-line="66" data-uid="lnk33" id="link_C7_APL"><path d="M946.05,498.4069 C963.98,493.0669 982.14,464.78 999,458.22 C1003,456.66 1036.03,439.65 1069.39,422.33" fill="none" id="C7-APL" style="stroke:#181818;stroke-width:1;"/></g><!--link C7 to AEC--><g class="link" data-entity-1="C7" data-entity-2="AEC" data-source-line="67" data-uid="lnk34" id="link_C7_AEC"><path d="M959.81,504.22 C996.87,504.22 1035.98,504.22 1068.46,504.22" fill="none" id="C7-AEC" style="stroke:#181818;stroke-width:1;"/></g><!--link C7 to AEG--><g class="link" data-entity-1="C7" data-entity-2="AEG" data-source-line="68" data-uid="lnk35" id="link_C7_AEG"><path d="M951.32,532.35 C967.57,537.33 983.85,542.95 999,549.22 C1006.41,552.29 1034.59,568.43 1064.04,585.67" fill="none" id="C7-AEG" style="stroke:#181818;stroke-width:1;"/></g><!--SRC=[VLHBRjj03Dth58HNhP44oDT0qOsX1Dxq4yI8Lzqm4YqJ6Squmv7xN_GeGHOzGDiJw6BbI2D31TgkI93lyJEFag5rWE30SxK9KBAd8h2pcToptQB76hPOt6D5o_3H4CGqsihG220RBDrxjXMiqGXb6HR1UPYiM5Z1WIQ00giXV2jD- -ZP0JQ1RE12sHtYThvdkeu7QDkVbki-lTgd5oHgk-1YYCtBcYrBy5hDnzBEyoVrtrcgeMYwC6F7cL- -7bWt95jdfNtSaO4j6GV65MWwsCtLyZhBLl3oo-5Xd2tRxmwJfNQY6Y57pvuXRqpG5ihxdC7mO32v92dS7Vc0G73NID7tpu_7e6loQpPGZbld9sF4l29RuW4KhcuibrYIbiCT6iRsU_kBfEUS_i4HYIF6Hzon3yrG-6mCQhzvGbrRnA7Hcju5OkzIlVCnTEaAHdC0P1yQ2YIArd5K_y1cWxKswaNAByQiA5Jxf4hlnGcyGtYsuMtxGwlGyvuqoxvcVnUorFaC1bmxNoVrhb_z0qggzKF3stuS5NqG9RAkyl-m9E0T6IguPrQeMQUtLtFX4dqHJq4FGSNhxKcofycU9NkHx2oxdIT0Siu7Ho63exUOGF7Sahj81V9PTEB2oTCb1a_diIv-8W9luZtfnnPVkeowgEeVWdi1JcKorEqam1hrLfqEDvsgICgNwLJ9aOMYENKQSGTW8sOSKdh9EouRP3bInbkD1noaXwZp8yJg9MEbFmKTwmGGZe-FCZrUYAF-1W00]--></g></svg>